<svg xmlns="http://www.w3.org/2000/svg" width="1800" height="1500" viewBox="0 0 1800 1500">
  <rect width="1800" height="1500" fill="#eee8db"/>
  <text x="70" y="70" font-family="Avenir Next, Helvetica, Arial" font-size="38" fill="#123840" font-weight="700">Lotus options for Still Rhodes front</text>
  <text x="70" y="112" font-family="Avenir Next, Helvetica, Arial" font-size="24" fill="#53605e">All originals are high-resolution enough for A5 print; choose by number.</text>
  <g font-family="Avenir Next, Helvetica, Arial" font-size="25" fill="#123840">
    <g transform="translate(70 160)"><image href="assets/lotus-candidates/more/trisorn-05.jpg" x="0" y="0" width="500" height="333" preserveAspectRatio="xMidYMid slice"/><text x="0" y="375" font-weight="700">1. Soft pink close-up</text><text x="0" y="410" font-size="20" fill="#53605e">8256×5504 · CC BY-SA</text></g>
    <g transform="translate(650 160)"><image href="assets/lotus-candidates/more/trisorn-13.jpg" x="0" y="0" width="500" height="333" preserveAspectRatio="xMidYMid slice"/><text x="0" y="375" font-weight="700">2. Pink lotus / darker greens</text><text x="0" y="410" font-size="20" fill="#53605e">8256×5504 · CC BY-SA</text></g>
    <g transform="translate(1230 160)"><image href="assets/lotus-candidates/more/wild-pink.jpg" x="0" y="0" width="500" height="333" preserveAspectRatio="xMidYMid slice"/><text x="0" y="375" font-weight="700">3. Clean wild pink blossom</text><text x="0" y="410" font-size="20" fill="#53605e">6960×4640 · CC BY</text></g>
    <g transform="translate(70 780)"><image href="assets/lotus-candidates/more/pink-lotus-1.jpg" x="0" y="0" width="500" height="333" preserveAspectRatio="xMidYMid slice"/><text x="0" y="375" font-weight="700">4. Classic single lotus</text><text x="0" y="410" font-size="20" fill="#53605e">6000×4000 · CC BY</text></g>
    <g transform="translate(650 780)"><image href="assets/lotus-candidates/more/pink-lotus-4.jpg" x="0" y="0" width="500" height="333" preserveAspectRatio="xMidYMid slice"/><text x="0" y="375" font-weight="700">5. Pink lotus side angle</text><text x="0" y="410" font-size="20" fill="#53605e">6000×4000 · CC BY</text></g>
    <g transform="translate(1230 780)"><image href="assets/lotus-candidates/more/sacred-pond-2.jpg" x="0" y="0" width="500" height="333" preserveAspectRatio="xMidYMid slice"/><text x="0" y="375" font-weight="700">6. Natural pond / atmosphere</text><text x="0" y="410" font-size="20" fill="#53605e">8256×5504 · CC BY-SA</text></g>
  </g>
</svg>
